# File created by Blade
# Date/Time:  Wed Jan 21 16:27:40 2015
# Frame Rate: 120.000 fps
#------------------------------------------------------
:FULLY-SPECIFIED
:DEGREES
911
root 17.751322 8.003415 -21.146406 -182.465841 33.503059 -201.957190
Spine 40.262211 -20.475273 -12.591327
Head 10.491041 -22.124795 6.981551
LeftShoulder 11.118688 -30.415056 -0.625323
LeftArm 39.190252 64.173227 -46.391247
LeftForeArm 34.860055 -0.000000 14.642208
LeftHand 6.823235 -0.000000 58.445199
LeftHandThumb1 -26.253704 0.000000 33.147579
RightShoulder -5.580245 -12.351412 14.655978
RightArm 23.961025 -12.118562 61.529143
RightForeArm -35.451065 -0.000000 35.873124
RightHand 2.253621 -0.000000 -17.457949
RightHandThumb1 -24.326973 -0.000000 -32.862282
LeftUpLeg 17.588239 -6.248001 37.333726
LeftLeg 39.957565 -0.000000 -0.000000
LeftFoot 3.552088 52.104985 -0.273412
LeftToeBase 21.197469 -0.000000 -0.000000
RightUpLeg -101.650984 -39.070108 4.957847
RightLeg -4.286669 -0.000000 0.000000
RightFoot 24.578000 -40.547004 -9.609899
RightToeBase 17.101070 -0.000000 -0.000000
912
root 17.749466 8.016671 -21.143245 -182.382834 33.514159 -201.871050
Spine 40.269008 -20.552704 -12.538970
Head 10.529316 -22.027599 6.952638
LeftShoulder 11.108906 -30.449963 -0.593591
LeftArm 39.357735 64.218232 -46.379128
LeftForeArm 34.768447 -0.000000 14.252168
LeftHand 6.870348 -0.000000 58.580693
LeftHandThumb1 -26.253704 0.000000 33.147579
RightShoulder -5.567638 -12.354329 14.662979
RightArm 24.169850 -12.208972 61.428526
RightForeArm -35.437646 -0.000000 35.627767
RightHand 2.204192 -0.000000 -17.580829
RightHandThumb1 -24.326973 -0.000000 -32.862282
LeftUpLeg 17.544096 -6.228689 37.388186
LeftLeg 39.979258 -0.000000 -0.000000
LeftFoot 3.581976 52.139938 -0.254408
LeftToeBase 21.198411 -0.000000 -0.000000
RightUpLeg -101.645102 -39.049000 5.052403
RightLeg -4.335801 -0.000000 0.000000
RightFoot 24.599785 -40.673362 -9.441248
RightToeBase 17.209494 -0.000000 -0.000000
913
root 17.747241 8.030480 -21.142887 -182.323228 33.514997 -201.805812
Spine 40.290650 -20.629186 -12.507811
Head 10.555861 -21.947332 6.936740
LeftShoulder 11.117897 -30.533574 -0.566094
LeftArm 39.537709 64.345149 -46.337963
LeftForeArm 34.602527 0.000000 13.865157
LeftHand 6.939788 -0.000000 58.717652
LeftHandThumb1 -26.253704 0.000000 33.147579
RightShoulder -5.544365 -12.326635 14.666940
RightArm 24.332922 -12.316948 61.324582
RightForeArm -35.407808 -0.000000 35.383415
RightHand 2.242001 -0.000000 -17.709967
RightHandThumb1 -24.326973 -0.000000 -32.862282
LeftUpLeg 17.510043 -6.233855 37.405088
LeftLeg 40.011645 -0.000000 -0.000000
LeftFoot 3.670400 52.134680 -0.157264
LeftToeBase 21.101751 -0.000000 -0.000000
RightUpLeg -101.651627 -39.067366 5.150828
RightLeg -4.366601 -0.000000 0.000000
RightFoot 24.605343 -40.498171 -9.472192
RightToeBase 17.908698 -0.000000 -0.000000
914
root 17.745142 8.043246 -21.140639 -182.249658 33.514772 -201.730472
Spine 40.294862 -20.693812 -12.457283
Head 10.585878 -21.895297 6.926136
LeftShoulder 11.146075 -30.638380 -0.531952
LeftArm 39.700202 64.494298 -46.355305
LeftForeArm 34.393776 -0.000000 13.410269
LeftHand 6.975643 0.000000 58.882689
LeftHandThumb1 -26.253704 0.000000 33.147579
RightShoulder -5.504978 -12.323665 14.651624
RightArm 24.517735 -12.451923 61.209945
RightForeArm -35.286642 -0.000000 35.094448
RightHand 2.329069 0.000000 -17.876290
RightHandThumb1 -24.326973 -0.000000 -32.862282
LeftUpLeg 17.457118 -6.216546 37.458199
LeftLeg 40.028229 -0.000000 -0.000000
LeftFoot 3.636222 52.171528 -0.215719
LeftToeBase 21.180217 -0.000000 -0.000000
RightUpLeg -101.616952 -39.069224 5.187947
RightLeg -4.388547 -0.000000 0.000000
RightFoot 24.467496 -40.603819 -9.310122
RightToeBase 18.399703 -0.000000 -0.000000
915
root 17.742111 8.057570 -21.140209 -182.187291 33.514625 -201.665910
Spine 40.305609 -20.748700 -12.397280
Head 10.598501 -21.862699 6.900939
LeftShoulder 11.206574 -30.806495 -0.529178
LeftArm 39.656201 64.627947 -46.588110
LeftForeArm 34.259936 -0.000000 12.927926
LeftHand 7.076450 -0.000000 59.022445
LeftHandThumb1 -26.253704 0.000000 33.147579
RightShoulder -5.460446 -12.327972 14.623381
RightArm 24.713170 -12.604063 61.078131
RightForeArm -35.221246 0.000000 34.784218
RightHand 2.368253 -0.000000 -18.101496
RightHandThumb1 -24.326973 -0.000000 -32.862282
LeftUpLeg 17.414285 -6.217800 37.476850
LeftLeg 40.070573 -0.000000 -0.000000
LeftFoot 3.716252 52.161056 -0.121230
LeftToeBase 21.101558 -0.000000 -0.000000
RightUpLeg -101.629450 -39.080062 5.298437
RightLeg -4.428291 -0.000000 0.000000
RightFoot 24.465564 -40.490656 -9.183786
RightToeBase 18.559419 -0.000000 -0.000000
916
root 17.740123 8.070892 -21.137227 -182.116103 33.511639 -201.594696
Spine 40.320986 -20.787634 -12.338830
Head 10.575063 -21.816614 6.930793
LeftShoulder 11.264934 -30.978870 -0.493657
LeftArm 39.496859 64.704392 -46.968172
LeftForeArm 34.137572 0.000000 12.466653
LeftHand 7.175448 -0.000000 59.127486
LeftHandThumb1 -26.253704 0.000000 33.147579
RightShoulder -5.421057 -12.298674 14.598780
RightArm 24.890541 -12.787662 60.941263
RightForeArm -35.148513 -0.000000 34.481922
RightHand 2.341323 -0.000000 -18.330917
RightHandThumb1 -24.326973 -0.000000 -32.862282
LeftUpLeg 17.353291 -6.200195 37.524434
LeftLeg 40.087503 -0.000000 -0.000000
LeftFoot 3.649490 52.174092 -0.219151
LeftToeBase 21.282168 -0.000000 -0.000000
RightUpLeg -101.598420 -39.078871 5.341079
RightLeg -4.448580 -0.000000 0.000000
RightFoot 24.384740 -40.609239 -9.089175
RightToeBase 18.888558 -0.000000 -0.000000
